<?xml version="1.0" encoding="utf-8"?>
<!-- Generator: Adobe Illustrator 24.0.0, SVG Export Plug-In . SVG Version: 6.00 Build 0)  -->
<svg version="1.1" id="Слой_1" xmlns="http://www.w3.org/2000/svg" xmlns:xlink="http://www.w3.org/1999/xlink" x="0px" y="0px"
	 viewBox="0 0 48 48" style="enable-background:new 0 0 48 48;" xml:space="preserve">
<style type="text/css">
	.st0{fill:#D5E5C0;}
	.st1{fill:#F2F6F9;}
	.st2{fill:#508696;}
</style>
<rect class="st0" width="48" height="48"/>
<path class="st1" d="M39.3,8.7c-6.6-6.6-14.5-9.3-17.7-6.1c-2.1,2.1-1.6,6.2,0.7,10.6c-4.4-2.4-8.5-2.8-10.6-0.7
	c-1.9,1.9-1.7,5.3,0.1,9.2c-3.9-1.8-7.3-1.9-9.2-0.1c-3.2,3.2-0.5,11.1,6.1,17.7s14.5,9.3,17.7,6.1c1.9-1.9,1.7-5.3-0.1-9.2
	c3.9,1.8,7.3,1.9,9.2,0.1c2.1-2.1,1.6-6.2-0.7-10.6c4.4,2.4,8.5,2.8,10.6,0.7C48.6,23.2,45.8,15.3,39.3,8.7z"/>
<g id="Слой_2_1_">
	<g>
		<path class="st2" d="M29.6,19.7c-0.2,0.5-0.4,1.3-0.8,2.3c-0.3,1-0.6,1.8-0.8,2.3c0,0.1,0,0.1,0,0.2c0,0.2,0.1,0.3,0.3,0.3
			c0.2,0,0.5-0.1,0.9-0.2s0.7-0.2,0.9-0.2c0.6,0,1.3,0.2,1.9,0.6c0.7,0.4,1,0.9,1,1.4c0,0.7-0.2,1.8-0.5,3.2
			c-0.4,1.5-0.5,2.5-0.5,3.2c0,1.7,0.4,2.5,1.2,2.5c0.3,0,0.6-0.1,0.8-0.4c0.3-0.3,0.5-0.6,0.6-0.9c0.2-0.3,0.3-0.6,0.5-0.9
			c0.2-0.3,0.3-0.4,0.5-0.4c0.1,0,0.2,0,0.2,0c-0.6,2.4-1.6,3.6-3,3.6c-1.1,0-2.1-0.6-3-1.7c-0.9-1.1-1.3-2.3-1.3-3.5
			c0-0.5,0.1-1.2,0.4-2.3c0.2-1.1,0.4-1.9,0.4-2.4c0-0.3-0.2-0.5-0.5-0.5c-0.5,0.1-0.9,0.1-1.2,0.2c-0.3,0.1-0.6,0.2-0.9,0.4
			c-0.3,0.2-0.6,0.6-0.8,1c-2.8,5.7-5.7,8.5-8.8,8.5c-1.8,0-3.3-0.9-4.6-2.8c-1.3-1.9-1.9-3.6-1.9-5.3c0-0.8,0.1-1.5,0.3-2.1
			c0.2-0.7,0.6-1,1.1-1c0.3,0,0.6,0.2,0.9,0.5c0.3,0.3,0.5,0.7,0.5,1s0,0.7-0.1,1.2s-0.1,1-0.1,1.3c0,1.4,0.4,2.7,1.2,4.1
			c0.8,1.4,1.7,2.1,2.8,2.1c0.5,0,0.9-0.1,1.4-0.2c0.4-0.2,0.9-0.4,1.3-0.8c0.4-0.4,0.8-0.7,1.2-1.1c0.3-0.3,0.7-0.8,1.2-1.4
			c0.4-0.6,0.8-1.1,1-1.4s0.5-0.9,1-1.6c0.4-0.7,0.7-1.2,0.9-1.4c0.2-0.2,0.2-0.5,0.2-0.7c0-0.3-0.2-0.5-0.7-0.6
			c-3.5-1-5.3-3.7-5.3-8.1c0-1.3,0.2-2.7,0.7-4.2s1.1-2.8,2-4C23,8.4,24,7.8,25,7.8c0.9,0,1.7,0.3,2.4,0.8c0.7,0.5,1.2,1.2,1.5,2.1
			s0.6,1.8,0.7,2.7s0.2,1.9,0.2,2.8C30,17.9,29.9,18.9,29.6,19.7z M23,17.1c-0.4,1.9-0.5,3-0.5,3.2c0,1.2,0.3,2.3,0.9,3.3
			s1.5,1.5,2.7,1.5c0.4,0,0.7-0.3,0.9-0.8c0.1-0.4,0.3-1,0.6-2c0.3-1,0.5-1.8,0.7-2.3c0.1-0.5,0.3-1.2,0.4-2s0.2-1.5,0.2-2.2
			c0-1-0.2-2.2-0.7-3.5c-0.4-1.3-1-2-1.6-2c-0.7,0-1.4,0.9-2.3,2.6C23.5,14.7,23,16.1,23,17.1z"/>
	</g>
</g>
</svg>
