<svg width="55" height="55" viewBox="0 0 55 55" fill="none" xmlns="http://www.w3.org/2000/svg">
<path d="M4.42247 54.0601C4.42247 53.4665 4.42247 52.8729 4.42247 52.2237C5.31289 52.2237 6.14765 52.2237 7.05662 52.2237C6.83401 48.7919 6.61141 45.4157 6.3888 42.0024C8.22529 42.0024 9.98757 42.0024 11.8426 42.0024C11.62 45.3971 11.3974 48.7548 11.1748 52.1495C22.2122 52.1495 33.2311 52.1495 44.3057 52.1495C44.0831 48.7733 43.8605 45.3971 43.6379 41.9839C45.4743 41.9839 47.2366 41.9839 49.0917 41.9839C48.8691 45.3786 48.6465 48.7548 48.4238 52.1866C49.2957 52.1866 50.1305 52.1866 51.058 52.1866C51.058 52.8544 51.058 53.4665 51.058 54.0601C35.4943 54.0601 19.9676 54.0601 4.42247 54.0601Z" fill="#0F2129"/>
<path d="M0.730957 25.8821C1.28747 24.9731 2.51179 24.8618 3.2538 25.6409C7.66878 30.2785 12.1023 34.9346 16.5173 39.5722C16.6471 39.7021 16.777 39.8505 16.9625 40.0545C16.7213 40.0731 16.5544 40.0916 16.3874 40.0916C13.9759 40.0916 11.5829 40.0916 9.17136 40.0916C8.76325 40.0916 8.48499 39.9803 8.20674 39.6835C5.85085 37.1978 3.49496 34.712 1.12051 32.2448C1.00921 32.115 0.860809 32.0037 0.730957 31.8924C0.730957 29.8889 0.730957 27.8855 0.730957 25.8821Z" fill="#0F2129"/>
<path d="M0.730957 34.6379C0.805158 34.6936 0.91646 34.7307 0.972111 34.8049C2.54889 36.4559 4.14422 38.1254 5.72099 39.7949C5.77665 39.8506 5.8323 39.9248 5.96215 40.0917C5.64679 40.0917 5.42419 40.0917 5.22014 40.0917C4.14422 40.0917 3.08685 40.0917 2.01093 40.0917C1.43587 40.0917 0.972111 39.9433 0.730957 39.3868C0.730957 37.81 0.730957 36.2333 0.730957 34.6379Z" fill="#0F2129"/>
<path d="M0.730957 52.1494C1.23182 52.168 1.73267 52.1865 2.23353 52.168C2.51179 52.168 2.60454 52.2607 2.60454 52.539C2.60454 53.0398 2.62309 53.5407 2.62309 54.0415C1.99238 54.0415 1.36167 54.0415 0.730957 54.0415C0.730957 53.4108 0.730957 52.7801 0.730957 52.1494Z" fill="#0F2129"/>
<path d="M52.8388 54.0602C52.8388 53.5779 52.8759 53.077 52.8574 52.5947C52.8388 52.2608 52.9687 52.168 53.284 52.1866C53.7478 52.2051 54.2116 52.1866 54.731 52.1866C54.731 52.8544 54.731 53.448 54.731 54.0602C54.1003 54.0602 53.4695 54.0602 52.8388 54.0602Z" fill="#0F2129"/>
<path d="M27.6846 29.8333C24.0487 29.8333 20.4129 29.8333 16.777 29.8333C15.2002 29.8333 13.9759 29.2583 13.2339 27.8299C12.6403 26.6612 12.8072 25.4926 13.3823 24.3424C16.61 17.8869 19.8378 11.4314 23.0655 4.97589C23.5293 4.02983 24.0116 3.08376 24.4754 2.15625C25.1432 0.820622 26.2191 0.0600586 27.7402 0.0600586C29.2428 0.0600586 30.3373 0.802072 31.0051 2.15625C34.7337 9.59493 38.4623 17.0336 42.1724 24.4908C43.2854 26.7354 42.2466 29.1099 39.9092 29.722C39.5011 29.8333 39.0374 29.8519 38.6107 29.8519C34.9563 29.8333 31.3204 29.8333 27.6846 29.8333ZM30.5042 7.01643C30.5042 6.96078 30.5042 6.90513 30.5042 6.84948C30.6155 5.0872 29.4283 3.77012 27.7402 3.75157C26.0707 3.75157 24.8649 5.06865 24.9577 6.83093C24.9948 7.48019 25.0319 8.12945 25.0875 8.77871C25.3287 12.0621 25.5513 15.327 25.811 18.6104C25.9037 19.7791 26.6643 20.5211 27.7217 20.5211C28.779 20.5211 29.5582 19.7791 29.6509 18.6289C29.9477 14.7519 30.226 10.8934 30.5042 7.01643ZM24.9577 25.1957C24.9762 26.7354 26.2377 27.9783 27.7588 27.9783C29.2985 27.9597 30.5228 26.6983 30.5228 25.1772C30.5042 23.6375 29.2614 22.3947 27.7217 22.4132C26.182 22.4132 24.9391 23.6746 24.9577 25.1957Z" fill="#0F2129"/>
<path d="M5.46129 25.2144C7.35342 25.2144 9.17135 25.2144 11.0449 25.2144C11.0449 25.8451 10.9707 26.4758 11.0635 27.0879C11.4159 29.685 13.6791 31.6513 16.2947 31.707C17.4077 31.7255 18.5022 31.707 19.6152 31.7255C19.8192 31.7255 20.0789 31.7997 20.2088 31.9481C22.7502 34.5823 25.2545 37.235 27.7773 39.8877C27.8144 39.9248 27.833 39.9804 27.9072 40.0732C27.7402 40.0917 27.6289 40.1288 27.4991 40.1288C24.9948 40.1288 22.509 40.1474 20.0047 40.1103C19.7821 40.1103 19.4853 39.999 19.3184 39.832C14.7736 35.0831 10.2473 30.3157 5.70244 25.5668C5.64679 25.4555 5.57259 25.3442 5.46129 25.2144Z" fill="#0F2129"/>
<path d="M43.0071 30.0374C44.3242 28.1453 44.5468 27.496 44.417 25.1772C45.159 25.1772 45.8824 25.1587 46.6245 25.1958C46.7729 25.1958 46.9398 25.3442 47.0511 25.4555C49.5183 28.0525 52.0041 30.631 54.4527 33.2466C54.6011 33.4136 54.7124 33.6918 54.7124 33.933C54.7309 35.584 54.7309 37.235 54.7309 38.8859C54.7309 39.7207 54.397 40.0361 53.5623 40.0917C52.8759 40.1474 52.3936 39.9433 51.9113 39.4239C49.1102 36.4187 46.2349 33.4507 43.3967 30.4641C43.2668 30.3157 43.137 30.1858 43.0071 30.0374Z" fill="#0F2129"/>
<path d="M49.9264 40.0918C49.6482 40.0918 49.4627 40.0918 49.2772 40.0918C46.8656 40.0918 44.4541 40.0918 42.0611 40.0732C41.8199 40.0732 41.5231 39.9805 41.3747 39.8321C38.8704 37.2165 36.3661 34.6009 33.8804 31.9667C33.8247 31.9111 33.7876 31.8369 33.6578 31.6885C34.2699 31.6885 34.8079 31.6885 35.3459 31.6885C36.5516 31.6885 37.7759 31.7441 38.9817 31.6699C39.7052 31.6328 40.4286 31.4288 41.1336 31.2618C41.3747 31.2062 41.5231 31.1691 41.7272 31.3731C44.417 34.2113 47.1068 37.031 49.7966 39.8506C49.8151 39.9063 49.8337 39.9434 49.9264 40.0918Z" fill="#0F2129"/>
<path d="M22.6389 31.6885C24.6609 31.6885 26.5901 31.6885 28.5193 31.6885C29.2243 31.6885 29.9292 31.6699 30.6341 31.707C30.8381 31.707 31.0793 31.7998 31.2277 31.9482C33.7505 34.5638 36.2548 37.1979 38.7591 39.8321C38.8148 39.8877 38.8333 39.9434 38.9446 40.0918C38.7035 40.0918 38.5365 40.0918 38.3696 40.0918C35.9209 40.0918 33.4908 40.0918 31.0422 40.0732C30.801 40.0732 30.5042 39.9805 30.3558 39.8321C27.833 37.2165 25.3287 34.5823 22.8244 31.9482C22.7873 31.8925 22.7502 31.8369 22.6389 31.6885Z" fill="#0F2129"/>
<path d="M54.731 30.8165C52.913 28.9059 51.1878 27.0879 49.3885 25.1958C50.9652 25.1958 52.4122 25.1772 53.8591 25.2144C54.3785 25.2329 54.7124 25.5854 54.7124 26.1048C54.7495 27.6259 54.731 29.147 54.731 30.8165Z" fill="#0F2129"/>
<path d="M27.666 18.5363C27.5918 17.5531 27.5176 16.5885 27.4434 15.6053C27.2394 12.6373 27.0168 9.68777 26.8127 6.71971C26.7571 6.0519 27.1281 5.62524 27.7402 5.62524C28.3338 5.62524 28.7049 6.0519 28.6677 6.71971C28.5008 9.26111 28.2967 11.8025 28.1112 14.3439C28.0185 15.5682 27.9257 16.7925 27.8515 18.0169C27.833 18.1838 27.8144 18.3508 27.8144 18.5177C27.7588 18.5363 27.7031 18.5363 27.666 18.5363Z" fill="#0F2129"/>
<path d="M28.6492 25.1587C28.6678 25.641 28.2596 26.0677 27.7773 26.1048C27.2765 26.1419 26.8127 25.7338 26.7942 25.2144C26.7756 24.7321 27.1652 24.3054 27.666 24.2869C28.204 24.2498 28.6307 24.6393 28.6492 25.1587Z" fill="#0F2129"/>
</svg>
