<svg width="37" height="38" viewBox="0 0 37 38" fill="none" xmlns="http://www.w3.org/2000/svg">
<g clip-path="url(#clip0_55_60)">
<path d="M36.9231 13.5714C36.9231 13.7222 36.9231 13.873 36.9231 14.0238C36.9231 20.7341 36.9231 27.4444 36.9231 34.1547C36.9231 35.8135 36.2308 37.0198 34.6923 37.6984C34.2308 37.9246 33.7692 38 33.3077 38C23.3846 38 13.5385 38 3.61538 38C1.69231 38 0.153846 36.5674 0 34.6825C0 34.4563 0 34.2301 0 34.0793C0 27.4444 0 20.8095 0 14.1746C0 14.0238 0 13.873 0 13.6468C12.3077 13.5714 24.6154 13.5714 36.9231 13.5714ZM18.4615 23.5238C18.7692 23.5238 19 23.5238 19.3077 23.5238C20.3846 23.5238 21.1538 22.7698 21.2308 21.7143C21.2308 21.1111 21.2308 20.5079 21.2308 19.9047C21.2308 18.9246 20.4615 18.1706 19.4615 18.1706C18.7692 18.0952 18.0769 18.0952 17.3846 18.1706C16.3846 18.246 15.6923 19 15.6923 19.9801C15.6923 20.5833 15.6923 21.1865 15.6923 21.7897C15.6923 22.8452 16.5385 23.5238 17.5385 23.5992C17.8462 23.5238 18.1538 23.5238 18.4615 23.5238ZM18.4615 28.0476C18.1538 28.0476 17.8462 28.0476 17.5385 28.0476C16.4615 28.0476 15.6923 28.8016 15.6923 29.8571C15.6923 30.4603 15.6923 31.0635 15.6923 31.6666C15.6923 32.6468 16.4615 33.4008 17.3846 33.4762C18.0769 33.5516 18.7692 33.5516 19.4615 33.4762C20.4615 33.4008 21.1538 32.7222 21.1538 31.742C21.1538 31.1389 21.1538 30.4603 21.1538 29.8571C21.0769 28.877 20.3077 28.123 19.3077 28.123C19.0769 28.0476 18.7692 28.0476 18.4615 28.0476ZM8.30769 23.5238C8.61539 23.5238 9 23.5238 9.30769 23.5238C10.2308 23.5238 11 22.8452 11.0769 21.9405C11.1538 21.1865 11.1538 20.4325 11.0769 19.6786C11 18.8492 10.3846 18.246 9.53846 18.1706C8.76923 18.0952 8 18.0952 7.23077 18.1706C6.30769 18.246 5.61539 19 5.61539 19.9047C5.61539 20.5079 5.61539 21.1865 5.61539 21.7897C5.61539 22.7698 6.38462 23.5238 7.38462 23.5238C7.69231 23.5238 8 23.5238 8.30769 23.5238ZM31.3846 20.8095C31.3846 20.5079 31.3846 20.2063 31.3846 19.9047C31.3846 19 30.6923 18.246 29.7692 18.1706C29 18.0952 28.3077 18.0952 27.5385 18.1706C26.6154 18.246 26 18.8492 25.9231 19.754C25.8462 20.5079 25.8462 21.1865 25.9231 21.9405C26 22.8452 26.7692 23.5238 27.6923 23.5238C28.3077 23.5238 29 23.5238 29.6154 23.5238C30.6154 23.5238 31.3846 22.7698 31.3846 21.7897C31.3846 21.4881 31.3846 21.1111 31.3846 20.8095ZM8.30769 28.0476C8 28.0476 7.61538 28.0476 7.30769 28.0476C6.30769 28.0476 5.53846 28.8016 5.53846 29.7817C5.53846 30.4603 5.53846 31.0635 5.53846 31.742C5.53846 32.6468 6.23077 33.4008 7.15385 33.4762C7.92308 33.5516 8.61539 33.5516 9.38461 33.4762C10.3077 33.4008 11 32.7976 11 31.8928C11.0769 31.1389 11.0769 30.4603 11 29.7063C10.9231 28.8016 10.1538 28.123 9.23077 28.123C9 28.0476 8.69231 28.0476 8.30769 28.0476ZM28.6154 28.0476C28.3077 28.0476 27.9231 28.0476 27.6154 28.0476C26.6923 28.0476 25.9231 28.7262 25.8462 29.6309C25.7692 30.3849 25.7692 31.1389 25.8462 31.8928C25.9231 32.7222 26.5385 33.3254 27.3846 33.4008C28.1538 33.4762 28.9231 33.4762 29.6923 33.4008C30.6154 33.3254 31.2308 32.5714 31.3077 31.6666C31.3077 30.9881 31.3077 30.3849 31.3077 29.7063C31.3077 28.8016 30.5385 28.0476 29.5385 27.9722C29.3077 28.0476 29 28.0476 28.6154 28.0476Z" fill="#A6CC87"/>
<path d="M12 2.71429C16.3846 2.71429 20.6154 2.71429 24.9231 2.71429C24.9231 3.24206 24.9231 3.76984 25 4.22222C25.3846 6.10714 27.0769 7.38889 29 7.1627C30.8461 7.0119 32.2308 5.42857 32.3077 3.61905C32.3077 3.31746 32.3077 3.01587 32.3077 2.71429C34.7692 2.2619 36.8461 3.84524 36.9231 6.25794C37 7.99206 36.9231 9.72619 36.9231 11.5357C36.9231 11.6111 36.9231 11.6865 36.8461 11.7619C24.5385 11.7619 12.3077 11.7619 -1.17347e-05 11.7619C-1.17347e-05 11.6865 -0.0769348 11.6111 -0.0769348 11.5357C-0.0769348 9.65079 -0.0769348 7.84127 -0.0769348 5.95635C-1.17347e-05 4.14683 1.61537 2.71429 3.53845 2.63889C3.84614 2.63889 4.15383 2.63889 4.46153 2.63889C4.46153 3.16667 4.53845 3.61905 4.61537 4.14682C4.92307 6.03175 6.61537 7.31349 8.61537 7.1627C10.4615 7.0119 11.9231 5.50397 11.9231 3.61905C12 3.39286 12 3.09127 12 2.71429Z" fill="#A6CC87"/>
<path d="M10.1538 2.71429C10.1538 3.01587 10.1538 3.31746 10.1538 3.61905C10.1538 4.6746 9.38459 5.42857 8.38459 5.42857C7.30767 5.42857 6.53844 4.6746 6.46152 3.61905C6.46152 3.01587 6.46152 2.4127 6.46152 1.80952C6.46152 0.753968 7.30767 0 8.38459 0C9.38459 0 10.1538 0.829365 10.1538 1.88492C10.1538 2.11111 10.1538 2.4127 10.1538 2.71429Z" fill="#A6CC87"/>
<path d="M26.7692 2.71427C26.7692 2.41268 26.7692 2.18649 26.7692 1.8849C26.7692 0.904744 27.5385 0.0753784 28.5385 0.0753784C29.6154 0.0753784 30.4615 0.75395 30.4615 1.80951C30.4615 2.48808 30.4615 3.09125 30.4615 3.76982C30.3846 4.82538 29.5385 5.50395 28.5385 5.50395C27.5385 5.50395 26.7692 4.67458 26.7692 3.69443C26.7692 3.31744 26.7692 3.01585 26.7692 2.71427Z" fill="#A6CC87"/>
</g>
<defs>
<clipPath id="clip0_55_60">
<rect width="37" height="38" fill="white"/>
</clipPath>
</defs>
</svg>
