<svg width="42" height="43" viewBox="0 0 42 43" fill="none" xmlns="http://www.w3.org/2000/svg">
<g clip-path="url(#clip0_314_62)">
<path d="M0.365814 15.3672C14.0453 15.3672 27.6607 15.3672 41.3145 15.3672C41.3273 15.5594 41.3401 15.7261 41.3401 15.8927C41.3401 23.4545 41.3017 31.0164 41.3658 38.5782C41.3786 41.1287 39.4666 43 36.9386 43C26.1849 42.9615 15.4312 42.9872 4.67755 42.9743C2.50885 42.9743 0.866284 41.6799 0.455642 39.6676C0.391479 39.36 0.378647 39.0268 0.378647 38.7192C0.378647 31.0805 0.378647 23.4417 0.378647 15.803C0.365814 15.6748 0.365814 15.5466 0.365814 15.3672ZM6.52544 34.7717C6.52544 35.1049 6.51261 35.4381 6.52544 35.7842C6.5511 36.9889 7.35955 37.8348 8.56581 37.8733C9.25877 37.8989 9.9389 37.8989 10.6319 37.8733C11.7996 37.822 12.6081 37.0146 12.6594 35.8611C12.6979 35.1562 12.6851 34.4512 12.6594 33.7591C12.6081 32.5672 11.774 31.7726 10.5805 31.7597C9.87473 31.7469 9.16894 31.7469 8.46315 31.7597C7.38522 31.7982 6.56394 32.6185 6.52544 33.6822C6.51261 34.0283 6.52544 34.4 6.52544 34.7717ZM20.8466 31.7341C20.5129 31.7341 20.1793 31.7213 19.8328 31.7341C18.6265 31.7597 17.7924 32.6056 17.7668 33.7976C17.7539 34.4512 17.7539 35.1049 17.7668 35.7585C17.7796 36.9249 18.588 37.7964 19.7686 37.8477C20.4873 37.8861 21.2059 37.8861 21.9245 37.8477C23.0409 37.7964 23.875 36.9761 23.9135 35.8867C23.9392 35.1305 23.9392 34.3872 23.9135 33.631C23.875 32.5928 23.0409 31.7726 22.0015 31.7213C21.6165 31.7213 21.2315 31.7341 20.8466 31.7341ZM35.1805 23.5571C35.1934 23.2238 35.1934 22.8906 35.1805 22.5445C35.1549 21.3526 34.3592 20.5195 33.1786 20.4682C32.4729 20.4426 31.7671 20.4426 31.0741 20.4682C29.9192 20.5195 29.0979 21.3269 29.0466 22.4933C29.0209 23.1982 29.0209 23.9031 29.0466 24.5952C29.0979 25.7743 29.9448 26.569 31.1254 26.5946C31.8441 26.6074 32.5627 26.6202 33.2813 26.5818C34.3079 26.5433 35.1164 25.7231 35.1677 24.6977C35.1934 24.3261 35.1805 23.9416 35.1805 23.5571ZM20.8466 26.5946C21.193 26.5946 21.5524 26.6074 21.8988 26.5946C23.0666 26.5562 23.9007 25.7103 23.9264 24.5311C23.9392 23.8775 23.9392 23.2238 23.9264 22.5702C23.9135 21.391 23.1179 20.5323 21.9373 20.4682C21.2187 20.4298 20.5001 20.4298 19.7815 20.4682C18.665 20.5195 17.8309 21.3398 17.7924 22.4164C17.7668 23.1726 17.7668 23.9159 17.7924 24.6721C17.8309 25.7103 18.665 26.5433 19.7045 26.5946C20.0766 26.6074 20.4616 26.5946 20.8466 26.5946ZM9.55392 26.5946C9.88757 26.5946 10.2212 26.5946 10.5677 26.5946C11.7868 26.569 12.6209 25.7743 12.6722 24.5568C12.6979 23.8647 12.6979 23.1854 12.6722 22.4933C12.6209 21.3141 11.7996 20.4939 10.619 20.4554C9.92606 20.4298 9.24594 20.4298 8.55298 20.4554C7.37239 20.5067 6.56394 21.3398 6.53827 22.5189C6.52544 23.1854 6.52544 23.8647 6.53827 24.5311C6.56394 25.7359 7.39805 26.5562 8.60431 26.5818C8.91229 26.6074 9.23311 26.5946 9.55392 26.5946ZM32.1649 31.7341C31.8312 31.7341 31.4976 31.7213 31.1511 31.7341C29.9192 31.7597 29.0722 32.5672 29.0337 33.7976C29.0081 34.4641 29.0081 35.1433 29.0337 35.8098C29.0722 36.9889 29.8935 37.8092 31.0741 37.8605C31.7671 37.8861 32.4472 37.8861 33.1401 37.8605C34.3464 37.8092 35.1549 36.9761 35.1677 35.7585C35.1805 35.0536 35.1805 34.3487 35.1549 33.6566C35.1164 32.6056 34.2951 31.7982 33.2428 31.7469C32.9092 31.7213 32.537 31.7341 32.1649 31.7341Z" fill="#508696"/>
<path d="M28.0456 3.10162C27.9173 4.69089 28.1996 6.12636 29.4572 7.20296C30.2272 7.85661 31.1254 8.18985 32.152 8.17703C32.999 8.17703 33.7561 7.93351 34.4491 7.45929C35.1549 6.97226 35.7195 6.34424 35.9376 5.52397C36.143 4.75497 36.2071 3.9347 36.3354 3.11444C39.0816 2.66585 41.3273 4.53709 41.3401 7.36958C41.353 9.18955 41.3401 11.0095 41.3401 12.8295C41.3401 12.9705 41.3273 13.1115 41.3145 13.2781C27.6606 13.2781 14.0453 13.2781 0.36581 13.2781C0.36581 12.932 0.36581 12.6116 0.36581 12.304C0.36581 10.6891 0.41714 9.0742 0.352977 7.45929C0.250317 4.88314 2.27786 2.935 4.78021 3.06317C4.98553 3.07599 5.19085 3.06317 5.486 3.06317C5.486 3.42204 5.486 3.76809 5.486 4.10132C5.5245 6.20326 7.11573 7.97196 9.11761 8.13858C11.3248 8.33083 13.1984 6.95944 13.5962 4.81906C13.6988 4.26794 13.6732 3.67837 13.6988 3.07599C18.4597 3.10162 23.2078 3.10162 28.0456 3.10162Z" fill="#508696"/>
<path d="M11.6328 3.07599C11.6328 3.44767 11.6456 3.80654 11.6328 4.17822C11.5814 5.21638 10.773 6.06228 9.74639 6.12636C8.69412 6.20326 7.70601 5.49834 7.60335 4.43456C7.51352 3.52457 7.51352 2.57614 7.60335 1.66615C7.70601 0.640818 8.66845 -0.0512835 9.70789 -1.67566e-05C10.7345 0.0640667 11.5686 0.884335 11.6199 1.92249C11.6456 2.30699 11.6328 2.69149 11.6328 3.07599Z" fill="#508696"/>
<path d="M30.0732 3.07599C30.0732 2.70431 30.0603 2.34544 30.0732 1.97376C30.1117 0.935606 30.9201 0.0897044 31.9467 0.0128042C33.0118 -0.0769126 33.9999 0.628005 34.1026 1.69179C34.1924 2.60178 34.1924 3.55021 34.1026 4.4602C33.9999 5.51116 33.0118 6.2289 31.9467 6.13918C30.9201 6.06228 30.1117 5.21638 30.0603 4.17823C30.0603 3.80654 30.0732 3.44768 30.0732 3.07599Z" fill="#508696"/>
</g>
<defs>
<clipPath id="clip0_314_62">
<rect width="41" height="43" fill="white" transform="translate(0.352966)"/>
</clipPath>
</defs>
</svg>
