<svg width="41" height="43" viewBox="0 0 41 43" fill="none" xmlns="http://www.w3.org/2000/svg">
<g clip-path="url(#clip0_314_50)">
<path d="M0.0128174 15.3672C13.6923 15.3672 27.3077 15.3672 40.9615 15.3672C40.9743 15.5594 40.9872 15.7261 40.9872 15.8927C40.9872 23.4545 40.9487 31.0164 41.0128 38.5782C41.0257 41.1287 39.1136 43 36.5856 43C25.8319 42.9615 15.0782 42.9872 4.32455 42.9743C2.15585 42.9743 0.513287 41.6799 0.102645 39.6676C0.0384825 39.36 0.0256499 39.0268 0.0256499 38.7192C0.0256499 31.0805 0.0256499 23.4417 0.0256499 15.803C0.0128174 15.6748 0.0128174 15.5466 0.0128174 15.3672ZM6.17244 34.7717C6.17244 35.1049 6.15961 35.4381 6.17244 35.7842C6.19811 36.9889 7.00656 37.8348 8.21282 37.8733C8.90578 37.8989 9.5859 37.8989 10.2789 37.8733C11.4466 37.822 12.2551 37.0146 12.3064 35.8611C12.3449 35.1562 12.3321 34.4512 12.3064 33.7591C12.2551 32.5672 11.421 31.7726 10.2275 31.7597C9.52174 31.7469 8.81595 31.7469 8.11016 31.7597C7.03222 31.7982 6.21094 32.6185 6.17244 33.6822C6.15961 34.0283 6.17244 34.4 6.17244 34.7717ZM20.4936 31.7341C20.1599 31.7341 19.8263 31.7213 19.4798 31.7341C18.2735 31.7597 17.4394 32.6056 17.4138 33.7976C17.4009 34.4512 17.4009 35.1049 17.4138 35.7585C17.4266 36.9249 18.235 37.7964 19.4156 37.8477C20.1343 37.8861 20.8529 37.8861 21.5715 37.8477C22.6879 37.7964 23.5221 36.9761 23.5605 35.8867C23.5862 35.1305 23.5862 34.3872 23.5605 33.631C23.5221 32.5928 22.6879 31.7726 21.6485 31.7213C21.2635 31.7213 20.8785 31.7341 20.4936 31.7341ZM34.8275 23.5571C34.8404 23.2238 34.8404 22.8906 34.8275 22.5445C34.8019 21.3526 34.0062 20.5195 32.8256 20.4682C32.1199 20.4426 31.4141 20.4426 30.7211 20.4682C29.5662 20.5195 28.7449 21.3269 28.6936 22.4933C28.6679 23.1982 28.6679 23.9031 28.6936 24.5952C28.7449 25.7743 29.5918 26.569 30.7724 26.5946C31.4911 26.6074 32.2097 26.6202 32.9283 26.5818C33.9549 26.5433 34.7634 25.7231 34.8147 24.6977C34.8404 24.3261 34.8275 23.9416 34.8275 23.5571ZM20.4936 26.5946C20.84 26.5946 21.1994 26.6074 21.5458 26.5946C22.7136 26.5562 23.5477 25.7103 23.5734 24.5311C23.5862 23.8775 23.5862 23.2238 23.5734 22.5702C23.5605 21.391 22.7649 20.5323 21.5843 20.4682C20.8657 20.4298 20.1471 20.4298 19.4285 20.4682C18.312 20.5195 17.4779 21.3398 17.4394 22.4164C17.4138 23.1726 17.4138 23.9159 17.4394 24.6721C17.4779 25.7103 18.312 26.5433 19.3515 26.5946C19.7236 26.6074 20.1086 26.5946 20.4936 26.5946ZM9.20092 26.5946C9.53457 26.5946 9.86822 26.5946 10.2147 26.5946C11.4338 26.569 12.2679 25.7743 12.3192 24.5568C12.3449 23.8647 12.3449 23.1854 12.3192 22.4933C12.2679 21.3141 11.4466 20.4939 10.266 20.4554C9.57307 20.4298 8.89294 20.4298 8.19999 20.4554C7.01939 20.5067 6.21094 21.3398 6.18527 22.5189C6.17244 23.1854 6.17244 23.8647 6.18527 24.5311C6.21094 25.7359 7.04506 26.5562 8.25132 26.5818C8.5593 26.6074 8.88011 26.5946 9.20092 26.5946ZM31.8119 31.7341C31.4782 31.7341 31.1446 31.7213 30.7981 31.7341C29.5662 31.7597 28.7192 32.5672 28.6807 33.7976C28.6551 34.4641 28.6551 35.1433 28.6807 35.8098C28.7192 36.9889 29.5405 37.8092 30.7211 37.8605C31.4141 37.8861 32.0942 37.8861 32.7872 37.8605C33.9934 37.8092 34.8019 36.9761 34.8147 35.7585C34.8275 35.0536 34.8275 34.3487 34.8019 33.6566C34.7634 32.6056 33.9421 31.7982 32.8898 31.7469C32.5562 31.7213 32.184 31.7341 31.8119 31.7341Z" fill="#86AD47"/>
<path d="M27.6926 3.10162C27.5643 4.69089 27.8466 6.12636 29.1042 7.20296C29.8741 7.85661 30.7724 8.18985 31.799 8.17703C32.646 8.17703 33.4031 7.93351 34.096 7.45929C34.8018 6.97226 35.3665 6.34424 35.5846 5.52397C35.7899 4.75497 35.8541 3.9347 35.9824 3.11444C38.7286 2.66585 40.9743 4.53709 40.9871 7.36958C41 9.18955 40.9871 11.0095 40.9871 12.8295C40.9871 12.9705 40.9743 13.1115 40.9615 13.2781C27.3076 13.2781 13.6923 13.2781 0.0127825 13.2781C0.0127825 12.932 0.0127825 12.6116 0.0127825 12.304C0.0127825 10.6891 0.0641127 9.0742 -5.00698e-05 7.45929C-0.10271 4.88314 1.92483 2.935 4.42718 3.06317C4.6325 3.07599 4.83782 3.06317 5.13297 3.06317C5.13297 3.42204 5.13297 3.76809 5.13297 4.10132C5.17147 6.20326 6.7627 7.97196 8.76458 8.13858C10.9718 8.33083 12.8453 6.95944 13.2431 4.81906C13.3458 4.26794 13.3201 3.67837 13.3458 3.07599C18.1067 3.10162 22.8547 3.10162 27.6926 3.10162Z" fill="#86AD47"/>
<path d="M11.2798 3.07599C11.2798 3.44767 11.2926 3.80654 11.2798 4.17822C11.2284 5.21638 10.42 6.06228 9.39339 6.12636C8.34112 6.20326 7.35301 5.49834 7.25035 4.43456C7.16053 3.52457 7.16053 2.57614 7.25035 1.66615C7.35301 0.640818 8.31546 -0.0512835 9.35489 -1.67566e-05C10.3815 0.0640667 11.2156 0.884335 11.2669 1.92249C11.2926 2.30699 11.2798 2.69149 11.2798 3.07599Z" fill="#86AD47"/>
<path d="M29.7202 3.07599C29.7202 2.70431 29.7073 2.34544 29.7202 1.97376C29.7587 0.935606 30.5671 0.0897044 31.5937 0.0128042C32.6588 -0.0769126 33.6469 0.628005 33.7496 1.69179C33.8394 2.60178 33.8394 3.55021 33.7496 4.4602C33.6469 5.51116 32.6588 6.2289 31.5937 6.13918C30.5671 6.06228 29.7587 5.21638 29.7073 4.17823C29.7073 3.80654 29.7202 3.44768 29.7202 3.07599Z" fill="#86AD47"/>
</g>
<defs>
<clipPath id="clip0_314_50">
<rect width="41" height="43" fill="white"/>
</clipPath>
</defs>
</svg>
