<svg width="55" height="56" viewBox="0 0 55 56" fill="none" xmlns="http://www.w3.org/2000/svg">
<path d="M27.3738 27.2598C27.0109 28.5597 26.6481 29.8596 26.2852 31.1594C25.7303 33.1839 25.154 35.187 24.6204 37.2327C24.4923 37.7015 24.3002 37.8293 23.8307 37.808C22.4433 37.7867 21.056 37.808 19.5406 37.808C20.2663 32.4806 21.0346 27.0467 21.803 21.4849C21.6536 21.6554 21.5896 21.7193 21.5255 21.8045C20.8639 22.5717 19.9461 22.6995 19.1564 22.0603C18.0038 21.1013 16.8512 20.1637 15.7627 19.1408C13.9271 17.4148 14.0552 14.4101 16.1469 13.025C18.5161 11.4268 21.0346 10.0204 23.4678 8.52868C23.7666 8.3582 23.9801 8.37951 24.2789 8.5713C26.2852 9.93511 28.5904 9.89249 30.6394 8.54999C30.8101 8.44344 31.173 8.37951 31.3224 8.48606C33.841 9.99904 36.4236 11.4481 38.8568 13.1102C40.7991 14.4314 40.9271 17.3722 39.241 19.0343C38.1097 20.1424 36.8718 21.1226 35.6552 22.1242C34.9722 22.6782 34.0971 22.5717 33.4568 21.9324C33.35 21.8259 33.2433 21.698 33.0726 21.5062C33.841 27.0467 34.588 32.4806 35.335 37.872C33.7556 37.8506 32.2402 37.8293 30.7248 37.7867C30.5753 37.7867 30.3406 37.4884 30.2765 37.2753C29.4014 34.1641 28.5477 31.0529 27.6939 27.9417C27.6299 27.7073 27.5659 27.4942 27.5018 27.2598C27.4805 27.2598 27.4378 27.2598 27.3738 27.2598ZM21.9738 20.2703C22.2512 18.1819 22.55 16.0296 22.8702 13.6856C21.3121 14.7724 19.9248 15.7313 18.4947 16.7116C19.69 17.9262 20.8425 19.0982 21.9738 20.2703ZM32.2188 13.8135C32.1548 13.8348 32.1121 13.8561 32.0481 13.8774C32.3469 16.051 32.6457 18.2458 32.9232 20.2916C34.0331 19.1408 35.1856 17.9475 36.3809 16.6902C34.9935 15.7313 33.6062 14.7724 32.2188 13.8135Z" fill="#0F2129"/>
<path d="M8.10025 52.0002C8.10025 49.9758 8.10025 48.0579 8.10025 46.0974C21.0346 46.0974 33.9263 46.0974 46.8821 46.0974C46.8821 48.0579 46.8821 50.0184 46.8821 52.0002C33.9477 52.0002 21.0346 52.0002 8.10025 52.0002Z" fill="#0F2129"/>
<path d="M42.037 44.286C32.2402 44.286 22.5287 44.286 12.7319 44.286C13.3508 43.3271 13.9912 42.5813 15.1864 42.6026C15.4852 42.6026 15.784 42.6026 16.1042 42.6026C16.7872 42.5813 17.3635 42.3469 17.7904 41.7928C18.1532 41.3453 18.5801 40.9191 18.9216 40.4503C19.4125 39.811 20.0742 39.5127 20.8639 39.5127C25.218 39.5127 29.5508 39.5127 33.905 39.5127C34.6947 39.5127 35.3564 39.811 35.8473 40.4503C36.1674 40.8765 36.5516 41.2388 36.8718 41.6437C37.384 42.3256 38.0884 42.6239 38.9208 42.6026C39.0062 42.6026 39.0916 42.6026 39.1556 42.6026C40.4789 42.496 41.354 43.1353 42.037 44.286Z" fill="#0F2129"/>
<path d="M31.2584 4.03219C31.2584 6.14183 29.5508 7.8466 27.4378 7.8466C25.3461 7.8466 23.6172 6.14183 23.6172 4.0535C23.6172 1.92254 25.3461 0.217773 27.4805 0.217773C29.5722 0.217773 31.2797 1.92254 31.2584 4.03219Z" fill="#0F2129"/>
<path d="M43.8726 55.1539C43.8726 54.7064 43.8726 54.2589 43.8726 53.7688C45.4307 53.7688 46.9888 53.7688 48.6109 53.7688C48.6109 52.2984 48.6109 50.8707 48.6109 49.4216C50.5532 49.4216 52.4315 49.4216 54.2884 49.4216C54.3097 49.4642 54.3311 49.5069 54.3524 49.5495C53.2425 50.4445 52.1113 51.3395 50.9374 52.2984C52.1113 53.236 53.2212 54.131 54.4805 55.1539C50.8734 55.1539 47.4157 55.1539 43.8726 55.1539Z" fill="#0F2129"/>
<path d="M4.06626 52.2984C2.871 51.3394 1.76112 50.4444 0.501831 49.4429C2.55084 49.4429 4.40776 49.4429 6.35005 49.4429C6.35005 50.828 6.35005 52.2557 6.35005 53.7261C7.97219 53.7261 9.53029 53.7261 11.1097 53.7261C11.1097 54.2375 11.1097 54.685 11.1097 55.1538C7.60934 55.1538 4.15163 55.1538 0.693926 55.1538C0.672582 55.1112 0.651238 55.0686 0.629894 55.026C1.73978 54.1523 2.871 53.2573 4.06626 52.2984Z" fill="#0F2129"/>
<path d="M9.01803 14.4527C9.44491 14.4527 9.87179 14.4314 10.2773 14.4527C10.7896 14.474 11.1097 14.7723 11.1097 15.2838C11.1097 15.8165 10.7896 16.1149 10.2773 16.1362C9.42357 16.1788 8.54847 16.1788 7.67337 16.1362C7.16112 16.1149 6.84096 15.7952 6.8623 15.2625C6.88365 14.7297 7.2038 14.474 7.71606 14.4314C8.16428 14.4314 8.59116 14.4527 9.01803 14.4527Z" fill="#0F2129"/>
<path d="M46.5619 16.1575C46.1564 16.1575 45.7508 16.1788 45.3453 16.1575C44.769 16.1149 44.4489 15.7953 44.4489 15.3051C44.4489 14.815 44.769 14.4741 45.3453 14.4527C46.1777 14.4314 46.9888 14.4314 47.8212 14.4527C48.3761 14.4741 48.739 14.8576 48.6963 15.3264C48.6536 15.8379 48.3334 16.1362 47.8212 16.1575C47.4157 16.1788 46.9888 16.1575 46.5619 16.1575Z" fill="#0F2129"/>
<path d="M39.2836 3.0307C39.369 2.39141 41.3967 0.303071 41.8449 0.324381C42.1224 0.34569 42.5279 0.473548 42.6346 0.686643C42.7627 0.921049 42.784 1.41117 42.6133 1.60295C42.0157 2.30617 41.354 2.96677 40.6497 3.56344C40.4576 3.73391 39.988 3.73391 39.7105 3.60605C39.4971 3.52082 39.3904 3.15855 39.2836 3.0307Z" fill="#0F2129"/>
<path d="M13.5003 0.175293C13.8204 0.34577 14.0765 0.431008 14.2473 0.601484C14.8236 1.13422 15.3785 1.68827 15.9121 2.26363C16.3176 2.68982 16.339 3.20125 15.9761 3.54221C15.6133 3.90447 15.1224 3.88316 14.6955 3.45697C14.1192 2.90292 13.5216 2.34887 13.0093 1.73089C12.8386 1.5178 12.7532 1.0916 12.8386 0.81458C12.924 0.580175 13.2655 0.409698 13.5003 0.175293Z" fill="#0F2129"/>
<path d="M40.1374 26.7056C40.4362 26.876 40.671 26.9613 40.8204 27.1318C41.3967 27.6645 41.9516 28.2185 42.4852 28.7939C42.8908 29.2201 42.9121 29.7315 42.5706 30.0725C42.2291 30.4134 41.6955 30.3921 41.29 29.9872C40.7137 29.4332 40.1161 28.8791 39.6038 28.2612C39.4117 28.0268 39.369 27.5793 39.4544 27.2809C39.5184 27.0465 39.8813 26.8974 40.1374 26.7056Z" fill="#0F2129"/>
<path d="M13.5216 30.3709C13.3295 30.2218 12.988 30.0939 12.8813 29.8808C12.7746 29.6251 12.7532 29.1776 12.924 28.9858C13.5429 28.2613 14.2259 27.6007 14.9303 26.9614C15.2718 26.6631 15.7627 26.7057 15.9975 27.0893C16.1682 27.3663 16.2323 27.9203 16.0615 28.1121C15.4639 28.8367 14.7595 29.4759 14.0765 30.1365C13.9698 30.2431 13.7777 30.2644 13.5216 30.3709Z" fill="#0F2129"/>
</svg>
