<svg width="34" height="34" viewBox="0 0 34 34" fill="none" xmlns="http://www.w3.org/2000/svg">
<path d="M19.0819 34C19.0819 29.6333 19.0819 25.2666 19.0819 20.8698C20.4 20.8698 21.718 20.8698 23.0661 20.8698C23.2758 19.3038 23.4854 17.7981 23.6652 16.2321C22.1674 16.2321 20.6995 16.2321 19.2317 16.2321C19.2317 15.0275 19.1718 13.853 19.2617 12.7086C19.3216 11.8353 19.8608 11.3835 20.7595 11.2932C21.6581 11.233 22.5868 11.233 23.4854 11.233C23.6352 11.233 23.7551 11.233 23.9048 11.233C23.9048 9.78743 23.9048 8.40214 23.9048 6.98673C23.6951 6.95661 23.4555 6.9265 23.2458 6.9265C21.8079 6.86627 20.3401 6.71569 18.9022 7.01684C16.326 7.55891 14.6784 9.48628 14.5286 12.1063C14.4687 13.3109 14.4987 14.5456 14.4687 15.7502C14.4687 15.9309 14.4687 16.1116 14.4687 16.3224C13.1506 16.3224 11.8326 16.3224 10.5145 16.3224C10.5145 17.8884 10.5145 19.3942 10.5145 20.9602C11.8326 20.9602 13.1207 20.9602 14.4687 20.9602C14.4687 25.3268 14.4687 29.6333 14.4687 33.9699C8.59734 33.3074 1.01848 27.9469 0.119806 18.7316C-0.86874 8.85387 6.68016 0.391509 16.2661 1.22851e-05C26.0017 -0.391485 34.0299 7.37822 34 17.0753C33.97 26.7724 26.3612 33.3375 19.0819 34Z" fill="#508696"/>
</svg>
