<svg width="35" height="34" viewBox="0 0 35 34" fill="none" xmlns="http://www.w3.org/2000/svg">
<g clip-path="url(#clip0_55_67)">
<path d="M35 16.985C35 26.3612 27.1057 34.03 17.4846 34C7.80176 33.9401 0 26.3612 0 16.985C0 7.60881 7.86344 0 17.5154 0C27.1674 0 35 7.60881 35 16.985ZM6.32159 16.985H6.29075C6.29075 18.6326 6.29075 20.2502 6.29075 21.8978C6.29075 22.2872 6.29075 22.6467 6.38326 23.0361C6.90749 25.8819 9.28194 27.859 12.2731 27.889C15.7577 27.9189 19.2423 27.9189 22.7269 27.889C26.1189 27.8291 28.6784 25.2828 28.6784 21.9577C28.6784 18.6326 28.7093 15.3374 28.6784 12.0123C28.6784 11.2934 28.5551 10.5744 28.3084 9.91542C27.4758 7.60881 25.1938 6.11101 22.6035 6.11101C19.2731 6.11101 15.9736 6.11101 12.6432 6.11101C12.2423 6.11101 11.8722 6.14097 11.4714 6.17093C8.78855 6.47048 6.47577 8.74714 6.32159 11.3833C6.25991 13.2405 6.32159 15.0978 6.32159 16.985Z" fill="#A6CC87"/>
<path d="M26.9207 17.015C26.9207 18.393 26.9207 19.771 26.9207 21.1489C26.9207 24.0247 24.7004 26.1815 21.7401 26.1815C18.9031 26.1815 16.0352 26.1815 13.1982 26.1815C10.6696 26.1815 8.60353 24.504 8.14097 22.0776C8.0793 21.778 8.0793 21.4784 8.0793 21.1489C8.0793 18.363 8.0793 15.6071 8.0793 12.8212C8.0793 9.91545 10.2687 7.78857 13.2599 7.78857C16.0969 7.78857 18.9648 7.78857 21.8018 7.78857C24.3304 7.78857 26.3965 9.46611 26.8282 11.8925C26.8899 12.1921 26.8899 12.5216 26.8899 12.8511C26.9207 14.2591 26.9207 15.637 26.9207 17.015ZM17.4846 22.9163C20.9075 22.9163 23.6828 20.2802 23.6828 17.015C23.6828 13.7498 20.9075 11.0837 17.4846 11.0837C14.0925 11.0837 11.2863 13.7498 11.2863 17.015C11.2863 20.2502 14.0617 22.9163 17.4846 22.9163ZM23.8987 9.64584C22.9427 9.64584 22.141 10.4247 22.1718 11.3533C22.2026 12.282 22.9736 13.0309 23.9295 13.0309C24.8855 13.0309 25.6872 12.252 25.6564 11.3234C25.6256 10.3947 24.8546 9.64584 23.8987 9.64584Z" fill="#A6CC87"/>
<path d="M17.5154 21.2088C15.0793 21.2088 13.0749 19.3216 13.0749 16.985C13.0749 14.6784 15.0485 12.7612 17.4846 12.7612C19.9207 12.7612 21.9251 14.6485 21.9251 16.985C21.9559 19.2916 19.9515 21.2088 17.5154 21.2088Z" fill="#A6CC87"/>
</g>
<defs>
<clipPath id="clip0_55_67">
<rect width="35" height="34" fill="white"/>
</clipPath>
</defs>
</svg>
