<svg width="40" height="46" viewBox="0 0 40 46" fill="none" xmlns="http://www.w3.org/2000/svg">
<path d="M17.6147 0.565216C18.1305 0.695651 18.3883 1.08696 18.6462 1.60869C19.033 2.3913 19.2909 3.04348 19.6777 3.69565C20.0645 4.47826 19.9356 5.26087 19.1619 5.65217C18.5173 6.04348 17.7436 5.65217 17.3568 4.86956C16.97 4.21739 16.7122 3.43478 16.3254 2.78261C15.8096 1.73913 15.9385 1.08696 16.97 0.565216C17.2279 0.565216 17.4858 0.565216 17.6147 0.565216Z" fill="#93BCCC"/>
<path d="M28.0585 0.565216C29.09 1.21739 29.2189 1.73913 28.7032 2.78261C28.3164 3.56522 27.9296 4.34782 27.5428 5.13043C27.2849 5.65217 26.7691 5.91304 26.2534 5.78261C25.7377 5.65217 25.2219 5.26087 25.2219 4.73913C25.2219 4.47826 25.2219 4.08696 25.3509 3.82609C25.7377 3.04348 26.1245 2.13043 26.6402 1.34783C26.8981 0.956521 27.2849 0.826086 27.5428 0.565216C27.6717 0.565216 27.9296 0.565216 28.0585 0.565216Z" fill="#93BCCC"/>
<path d="M38.3733 28.2174C40.1784 30.3044 39.5337 33.6957 36.5682 34.6087C36.955 37.6087 36.4393 38.5217 34.1184 39.8261C34.1184 40.6087 34.2474 41.2609 34.1184 42.0435C33.8606 43.8696 32.1844 45.1739 30.3793 45.3044C26.7691 45.3044 23.03 45.3044 19.4198 45.1739C16.5832 45.0435 13.8756 44.2609 11.1679 43.2174C11.039 43.2174 11.039 43.087 10.91 42.9565C10.91 42.8261 10.91 42.8261 10.91 42.6957C10.91 36.4348 10.91 30.1739 10.91 24.0435C10.91 23.6522 11.039 23.5218 11.2968 23.3913C12.5862 22.7391 13.8756 22.087 14.907 21.1739C16.1964 20 16.8411 18.5652 17.3568 17C18.1304 14.7826 18.5172 12.4348 18.6462 10.087C18.6462 9.30436 19.033 8.78262 19.8066 8.78262C21.6117 8.65218 23.2878 8.91305 24.7061 10.2174C25.7376 11.2609 26.3823 12.4348 26.3823 14C26.3823 16.3478 26.1244 18.5652 25.4797 20.7826C25.3508 21.1739 25.2219 21.4348 25.0929 21.8261C25.3508 21.8261 25.4798 21.8261 25.6087 21.8261C28.7031 21.8261 31.7976 21.8261 34.7631 21.8261C36.0525 21.8261 37.2129 22.2174 38.1154 23.1304C39.4048 24.4348 39.6627 26.5217 38.5022 28.087C38.6312 27.9565 38.5022 28.087 38.3733 28.2174Z" fill="#93BCCC"/>
<path d="M0.595215 33.4348C0.595215 30.0435 0.595215 26.6522 0.595215 23.2609C0.595215 21.9565 0.982023 21.5652 2.27138 21.5652C3.8186 21.5652 5.2369 21.5652 6.78412 21.5652C7.94454 21.5652 8.33135 22.087 8.33135 23.1304C8.33135 29.913 8.33135 36.6957 8.33135 43.4783C8.33135 44.6522 7.81561 45.0435 6.78412 45.0435C5.2369 45.0435 3.68967 45.0435 2.14244 45.0435C1.11096 45.0435 0.595215 44.5217 0.595215 43.4783C0.595215 40.3478 0.595215 36.9565 0.595215 33.4348Z" fill="#93BCCC"/>
<path d="M13.4887 11.1304C13.1019 11.1304 12.5862 11.1304 12.1994 11.1304C11.5547 11.1304 10.91 10.6087 10.91 9.95651C10.91 9.30433 11.2968 8.65216 12.0705 8.65216C13.1019 8.65216 14.0045 8.65216 15.036 8.65216C15.6807 8.65216 16.1964 9.30433 16.1964 9.95651C16.1964 10.6087 15.6806 11.1304 14.907 11.1304C14.3913 11.1304 14.0045 11.1304 13.4887 11.1304Z" fill="#93BCCC"/>
<path d="M31.6687 11.1304C31.2819 11.1304 30.7661 11.1304 30.3793 11.1304C29.7346 11.1304 29.2189 10.6087 29.09 9.95653C29.09 9.30435 29.4768 8.65218 30.1214 8.65218C31.1529 8.52174 32.1844 8.52174 33.2159 8.65218C33.8606 8.65218 34.2474 9.30435 34.2474 10.087C34.2474 10.7391 33.7316 11.2609 32.958 11.2609C32.5712 11.1304 32.0555 11.1304 31.6687 11.1304Z" fill="#93BCCC"/>
</svg>
