<svg width="33" height="34" viewBox="0 0 33 34" fill="none" xmlns="http://www.w3.org/2000/svg">
<path d="M0 18.0816C0 17.3702 0 16.6588 0 15.9473C0.0287958 15.6509 0.0863874 15.3248 0.115183 15.0284C0.719895 10.1967 2.87958 6.28387 6.68063 3.3789C12.0079 -0.711772 19.0916 -1.15641 24.7932 2.37105C30.0628 5.60209 32.7984 10.4931 32.9712 16.807C33.0864 20.2751 32.1361 23.5062 30.2356 26.3815C27.6152 30.3833 23.9869 32.8436 19.3508 33.7329C18.7461 33.8514 18.1126 33.9107 17.5079 33.9996C16.8168 33.9996 16.1257 33.9996 15.4346 33.9996C15.3482 33.97 15.2618 33.9404 15.1754 33.9404C11.8927 33.6736 8.9267 32.5175 6.33508 30.4129C3.05236 27.7451 0.979058 24.2176 0.259162 19.9194C0.143979 19.3266 0.0863874 18.7041 0 18.0816ZM14.1099 13.2795C14.1099 16.7773 14.1099 20.2159 14.1099 23.684C15.233 23.684 16.3272 23.684 17.4503 23.684C17.4503 23.5358 17.4503 23.3876 17.4503 23.269C17.4503 21.4312 17.4503 19.5637 17.4503 17.7259C17.4503 17.133 17.6806 16.6291 18.0838 16.2141C19.034 15.3248 20.4738 15.7102 20.8194 16.9848C20.9346 17.3998 20.9634 17.8445 20.9634 18.2595C20.9921 19.9194 20.9634 21.6091 20.9634 23.269C20.9634 23.3876 20.9634 23.5358 20.9634 23.6544C22.1152 23.6544 23.2094 23.6544 24.3325 23.6544C24.3325 23.5358 24.3325 23.4765 24.3325 23.3876C24.3325 21.4608 24.3325 19.5341 24.3325 17.6073C24.3325 17.1627 24.3037 16.718 24.2173 16.303C23.9005 14.7024 23.0942 13.487 21.4529 13.1313C19.8979 12.7756 18.5157 13.1017 17.5654 14.5245C17.5367 14.5541 17.5079 14.5838 17.4215 14.6431C17.4215 14.1391 17.4215 13.6945 17.4215 13.2499C16.2984 13.2795 15.2042 13.2795 14.1099 13.2795ZM12.2094 13.2795C11.0576 13.2795 9.96335 13.2795 8.86911 13.2795C8.86911 16.7477 8.86911 20.1862 8.86911 23.6544C9.99215 23.6544 11.0864 23.6544 12.2094 23.6544C12.2094 20.1862 12.2094 16.7477 12.2094 13.2795ZM10.5393 8.24028C9.47382 8.24028 8.69634 8.92206 8.63874 9.9299C8.58115 10.9081 9.24346 11.6788 10.2513 11.7974C11.2304 11.9456 12.1518 11.3824 12.3534 10.4635C12.6702 9.27777 11.8351 8.24028 10.5393 8.24028Z" fill="#A6CC87"/>
</svg>
