<svg width="33" height="34" viewBox="0 0 33 34" fill="none" xmlns="http://www.w3.org/2000/svg">
<path d="M25.1139 33.214C17.1304 33.214 9.14691 33.214 1.26985 33.214C0.844058 33.0011 0.524719 32.6818 0.524719 32.1496C0.524719 23.208 0.524719 14.3729 0.524719 5.43141C0.524719 4.79273 0.950506 4.36695 1.58919 4.36695C2.65365 4.36695 3.71812 4.36695 4.78259 4.36695C4.88904 4.36695 4.99548 4.36695 5.10193 4.36695C5.10193 4.79273 5.10193 5.11207 5.10193 5.43141C5.10193 7.24101 6.37929 8.51837 8.18889 8.51837C11.4887 8.51837 14.895 8.51837 18.3013 8.51837C20.1109 8.51837 21.3883 7.24101 21.3883 5.43141C21.3883 5.00563 21.3883 4.68629 21.3883 4.2605C22.5592 4.2605 23.6237 4.2605 24.7946 4.2605C25.5397 4.2605 25.9655 4.68629 25.9655 5.43141C25.9655 7.56035 25.9655 9.68928 25.9655 11.7118C25.9655 11.9247 25.8591 12.1376 25.7526 12.244C22.985 15.0116 20.2174 17.7792 17.4498 20.5469C17.1304 20.8662 16.9175 21.1855 16.7046 21.5049C15.9595 23.208 15.1079 24.9112 14.3628 26.6143C14.1499 27.1466 14.0435 27.6788 14.1499 28.3175C14.4692 30.2335 16.4917 31.298 18.3013 30.4464C19.5787 29.9142 20.7496 29.2755 22.1334 28.7433C23.3043 28.3175 24.2624 27.5723 25.1139 26.6143C25.3268 26.295 25.6462 26.0821 25.9655 25.7627C25.9655 25.9756 25.9655 26.0821 25.9655 26.1885C25.9655 28.1046 25.9655 29.9142 25.9655 31.8302C25.8591 32.4689 25.6462 32.8947 25.1139 33.214ZM9.25335 13.8407C9.04046 13.6278 8.93401 13.4149 8.72112 13.3085C8.61467 13.202 8.40178 12.9891 8.29533 12.8827C7.86955 12.4569 7.33731 12.4569 6.91153 12.8827C6.48574 13.3085 6.48574 13.8407 6.91153 14.2665C7.44376 14.7987 7.97599 15.331 8.50823 15.8632C8.93401 16.289 9.46625 16.289 9.89203 15.8632C10.9565 14.7987 12.021 13.7343 13.0854 12.6698C13.5112 12.244 13.5112 11.7118 13.0854 11.286C12.6597 10.8602 12.1274 10.8602 11.7016 11.286C10.9565 12.0311 10.3178 12.6698 9.5727 13.4149C9.5727 13.5214 9.46625 13.7343 9.25335 13.8407ZM9.25335 26.5079C8.93401 26.1885 8.72112 25.8692 8.40178 25.5499C7.97599 25.1241 7.33731 25.1241 7.01797 25.5499C6.59219 25.9756 6.59219 26.5079 7.01797 26.9337C7.55021 27.4659 8.08244 27.9981 8.50823 28.4239C8.93401 28.8497 9.46625 28.8497 9.99848 28.4239C11.063 27.3594 12.1274 26.295 13.1919 25.2305C13.6177 24.8047 13.6177 24.166 13.2983 23.8467C12.8725 23.4209 12.3403 23.4209 11.8081 23.9531C11.063 24.6983 10.3178 25.4434 9.5727 26.1885C9.46625 26.295 9.3598 26.4014 9.25335 26.5079ZM9.25335 20.1211C8.93401 19.8017 8.61467 19.4824 8.29533 19.163C7.86955 18.7373 7.33731 18.7373 6.91153 19.163C6.48574 19.5888 6.48574 20.1211 6.91153 20.5469C7.44376 21.0791 7.97599 21.6113 8.50823 22.1436C8.93401 22.5693 9.46625 22.5693 9.89203 22.1436C10.2114 21.8242 10.5307 21.5049 10.8501 21.1855C11.5952 20.4404 12.3403 19.6953 13.0854 18.9502C13.4048 18.6308 13.5112 18.205 13.2983 17.7792C13.0854 17.3535 12.6596 17.247 12.2339 17.3535C12.021 17.4599 11.8081 17.5663 11.7016 17.6728C10.9565 18.5244 10.1049 19.2695 9.25335 20.1211ZM4.3568 15.8632C4.88904 15.8632 5.31482 15.4374 5.31482 14.9052C5.31482 14.3729 4.88904 13.9472 4.3568 13.9472C3.82457 13.9472 3.39878 14.3729 3.39878 14.9052C3.39878 15.4374 3.93102 15.8632 4.3568 15.8632ZM3.39878 27.4659C3.39878 27.9981 3.82457 28.4239 4.3568 28.4239C4.88904 28.4239 5.31482 27.9981 5.31482 27.4659C5.31482 26.9337 4.88904 26.5079 4.3568 26.5079C3.93102 26.5079 3.39878 26.9337 3.39878 27.4659ZM5.42127 21.1855C5.42127 20.6533 4.99548 20.2275 4.46325 20.2275C3.93102 20.2275 3.50523 20.6533 3.50523 21.1855C3.50523 21.7178 3.93102 22.1436 4.46325 22.1436C4.88904 22.1436 5.31482 21.7178 5.42127 21.1855Z" fill="#93BCCC"/>
<path d="M23.4108 25.55C22.027 24.1662 20.6431 22.7824 19.2593 21.3986C19.3658 21.2921 19.3658 21.2921 19.4722 21.1857C22.3463 18.3116 25.2204 15.4375 27.988 12.6699C28.5202 12.1377 29.0524 12.1377 29.6911 12.6699C30.5427 13.5215 31.3943 14.3731 32.2458 15.2247C32.6716 15.7569 32.6716 16.2891 32.2458 16.7149C29.3718 19.589 26.3913 22.5695 23.5172 25.4435C23.4108 25.4435 23.4108 25.4435 23.4108 25.55Z" fill="#93BCCC"/>
<path d="M9.57267 2.02517C9.57267 1.59939 9.57267 1.28005 9.57267 0.960706C9.57267 0.322025 9.99846 0.00268555 10.5307 0.00268555C12.2338 0.00268555 13.937 0.00268555 15.6401 0.00268555C16.2788 0.00268555 16.5982 0.428472 16.5982 0.960706C16.5982 1.28005 16.5982 1.59939 16.5982 2.02517C17.0239 2.02517 17.5562 2.02517 17.982 2.02517C18.8335 2.02517 19.2593 2.34452 19.2593 3.30254C19.2593 4.04766 19.2593 4.79279 19.2593 5.53792C19.2593 6.1766 18.8335 6.60238 18.1949 6.60238C14.7886 6.60238 11.3823 6.60238 7.97597 6.60238C7.33729 6.60238 6.9115 6.1766 6.9115 5.53792C6.9115 4.68634 6.9115 3.94122 6.9115 3.08964C6.9115 2.45096 7.33729 2.02517 7.97597 2.02517C8.5082 2.02517 9.04043 2.02517 9.57267 2.02517Z" fill="#93BCCC"/>
<path d="M17.982 23.1016C19.2593 24.3789 20.4302 25.5498 21.7076 26.8272C21.2818 27.0401 20.856 27.253 20.3238 27.4659C19.3658 27.8917 18.3013 28.4239 17.3433 28.8497C16.9175 29.0626 16.4917 28.9561 16.1724 28.6368C15.853 28.3175 15.853 27.8917 15.9595 27.4659C16.7046 25.9756 17.3433 24.4854 17.982 23.1016Z" fill="#93BCCC"/>
</svg>
