<svg width="44" height="39" viewBox="0 0 44 39" fill="none" xmlns="http://www.w3.org/2000/svg">
<path d="M43.8546 29.3913C43.5967 30.0435 43.4678 30.6956 43.2099 31.2174C42.3073 32.7826 41.018 33.6956 39.2129 33.8261C39.0839 33.8261 38.955 33.8261 38.8261 33.8261C38.8261 33.8261 38.8261 33.8261 38.6971 33.8261C38.6971 34.3478 38.6971 34.8696 38.6971 35.3913C38.6971 35.913 38.6971 36.4348 38.6971 36.9565C38.6971 37.4783 38.4393 38 38.0525 38.1304C37.5367 38.3913 37.1499 38.2609 36.6342 38C34.7001 36.6956 32.895 35.2609 30.961 33.9565C30.7031 33.8261 30.4453 33.6956 30.1874 33.6956C27.0929 33.6956 23.9985 33.6956 20.904 33.6956C18.3253 33.6956 16.1334 31.8696 15.7466 29.2609C15.6177 28.7391 15.7466 28.3478 15.6177 27.8261C15.8755 27.8261 16.0045 27.8261 16.1334 27.8261C20.6462 27.8261 25.1589 27.8261 29.6716 27.8261C32.895 27.8261 35.7316 25.7391 36.5052 22.4783C36.6342 21.8261 36.7631 21.1739 36.7631 20.5217C36.7631 18.3043 36.7631 16.2174 36.7631 14C36.7631 13.8696 36.7631 13.7391 36.7631 13.4783C39.8576 13.087 42.952 13.8696 43.7256 17.7826C43.7256 17.913 43.7256 17.913 43.8546 18.0435C43.8546 22.087 43.8546 25.7391 43.8546 29.3913Z" fill="#93BCCC"/>
<path d="M5.30284 26.1304C3.88455 26.1304 2.72413 25.6087 1.82158 24.6956C0.790096 23.6522 0.274353 22.4783 0.274353 21.0435C0.274353 15.9565 0.274353 10.8696 0.274353 5.91304C0.274353 3.17391 2.46626 0.956515 5.1739 0.82608C5.30284 0.82608 5.43178 0.82608 5.68965 0.82608C13.6837 0.82608 21.6777 0.82608 29.6717 0.82608C31.7346 0.82608 33.2819 1.60869 34.3133 3.43478C34.8291 4.21738 34.958 5.13043 34.958 6.04347C34.958 11 34.958 15.9565 34.958 20.7826C34.958 23.7826 32.6372 26 29.6717 26C24.901 26 20.0015 26 15.2309 26C14.973 26 14.7151 26.1304 14.4573 26.2609C12.1364 27.5652 9.94452 28.8696 7.62368 30.3043C7.10794 30.5652 6.59219 30.6956 6.07645 30.4348C5.56071 30.1739 5.43177 29.6522 5.43177 29C5.43177 28.087 5.30284 27.1739 5.30284 26.1304ZM17.5517 18.9565C19.6147 18.9565 21.6777 18.4348 23.2249 17.6522C23.9985 17.2609 24.2564 16.4783 23.8696 15.8261C23.4827 15.1739 22.7091 15.0435 21.9355 15.4348C19.0989 16.7391 16.2624 16.7391 13.2968 15.4348C12.3943 15.0435 11.6207 15.0435 11.2339 15.8261C10.8471 16.6087 11.2339 17.2609 12.1364 17.7826C13.8126 18.5652 15.6177 18.9565 17.5517 18.9565ZM16.2624 9.95652C16.2624 8.91304 15.3598 7.99999 14.3283 7.99999C13.2968 7.99999 12.3943 8.91304 12.3943 9.95652C12.3943 11 13.2968 11.913 14.3283 11.913C15.3598 11.913 16.2624 11 16.2624 9.95652ZM22.7091 9.95652C22.7091 8.91304 21.8066 7.99999 20.7751 7.99999C19.7436 7.99999 18.8411 8.91304 18.8411 9.95652C18.8411 11 19.7436 11.913 20.7751 11.913C21.8066 11.913 22.7091 11 22.7091 9.95652Z" fill="#93BCCC"/>
</svg>
