<svg width="41" height="41" viewBox="0 0 41 41" fill="none" xmlns="http://www.w3.org/2000/svg">
<path d="M12.7391 40.0435C12.4783 39.7826 12.2174 39.6522 11.9565 39.3913C11.0435 38.4783 10 37.4348 9.08696 36.5218C8.95653 36.3913 8.69566 36.2609 8.56522 36.2609C7.39131 36.2609 6.2174 36.2609 4.91305 36.1304C2.56522 35.8696 0.739136 33.7826 0.739136 31.5652C0.739136 26.4783 0.739136 21.3913 0.739136 16.1739C0.739136 13.6957 2.82609 11.6087 5.30435 11.4783C6.34783 11.4783 7.39131 11.4783 8.43479 11.4783C12.4783 11.4783 16.3913 11.4783 20.4348 11.4783C22.913 11.4783 24.7391 12.9131 25.3913 15.2609C25.5217 15.6522 25.5217 16.0435 25.5217 16.4348C25.5217 21.3913 25.5217 26.2174 25.5217 31.1739C25.5217 34.0435 23.4348 36.1304 20.4348 36.1304C19.5217 36.1304 18.6087 36.1304 17.6957 36.1304C17.4348 36.1304 17.3044 36.2609 17.0435 36.3913C16.1304 37.3044 15.087 38.3478 14.1739 39.2609C13.913 39.5217 13.6522 39.6522 13.3913 39.9131C13.1304 40.0435 12.8696 40.0435 12.7391 40.0435ZM16.3913 23.6087C18.087 21.3913 17.1739 18.9131 16 17.7391C14.5652 16.4348 12.3478 16.1739 10.6522 17.3478C9.73913 18 9.2174 18.7826 8.95653 19.8261C8.56522 21.2609 8.82609 22.4348 9.73914 23.6087C9.73914 23.6087 9.6087 23.6087 9.6087 23.7391C7.13044 25.1739 5.95653 27.2609 5.82609 30C5.82609 30.7826 6.2174 31.3044 7 31.3044C11.0435 31.3044 15.2174 31.3044 19.2609 31.3044C20.0435 31.3044 20.5652 30.7826 20.4348 30C20.4348 28.4348 19.913 27 18.8696 25.6957C18.2174 24.9131 17.3044 24.1304 16.3913 23.6087Z" fill="#93BCCC"/>
<path d="M40.2609 20.8696C40.1304 21.1304 40.1304 21.3913 40 21.6522C39.3478 23.7391 37.5217 25.0435 35.4348 25.0435C34.5217 25.0435 33.4783 25.0435 32.5652 25.0435C32.3044 25.0435 32.0435 25.1739 31.7826 25.3043C30.7391 26.3478 29.8261 27.2609 28.7826 28.3043C28.5218 28.5652 28.1304 28.8261 27.6087 28.6957C27.6087 25.8261 27.6087 22.9565 27.6087 20.087C28.2609 20.2174 28.6522 19.8261 29.0435 19.4348C31 17.6087 32.8261 15.6522 34.1304 13.3043C34.6522 12.3913 35.0435 11.3478 35.1739 10.1739C35.3044 8.21739 34.6522 6.7826 32.9565 5.86956C31.2609 4.95652 29.6957 5.08695 28.1304 6.13043C28 6.26086 28 6.26086 27.8696 6.3913C27.087 5.73912 26.3044 5.34782 25.3913 5.34782C23.1739 5.08695 20.9565 6.65217 20.5652 8.86956C20.5652 9 20.4348 9.13043 20.3044 9.13043C18.7391 9.13043 17.1739 9.13043 15.4783 9.13043C15.4783 8.99999 15.4783 9 15.4783 8.86956C15.4783 7.56521 15.4783 6.26086 15.4783 4.95652C15.4783 2.47826 17.6957 0.260864 20.1739 0.260864C25.2609 0.260864 30.3478 0.260864 35.4348 0.260864C37.6522 0.260864 39.6087 1.95652 40 4.30434C40 4.43478 40 4.43478 40.1304 4.56521C40.2609 10.0435 40.2609 15.5217 40.2609 20.8696Z" fill="#93BCCC"/>
<path d="M22.9131 9.78261C23.0435 8.73913 23.6957 8.08696 24.6087 7.82609C25.6522 7.69565 26.4348 8.08696 26.9565 8.86957C27.4783 9.78261 28.5218 9.78261 29.0435 8.86957C29.6957 7.82609 30.6087 7.43479 31.6522 7.82609C32.6957 8.21739 33.2174 9.13044 32.9565 10.3044C32.8261 10.8261 32.6957 11.4783 32.4348 12C31.3913 14.087 29.6957 15.7826 27.8696 17.6087C27.7391 17.3478 27.7391 17.087 27.7391 16.9565C27.7391 15.1304 27.2174 13.5652 26.1739 12.1304C25.3913 11.2174 24.4783 10.4348 23.3044 10.0435C23.1739 9.78261 23.0435 9.78261 22.9131 9.78261Z" fill="#93BCCC"/>
<path d="M17.9565 29.087C14.6957 29.087 11.4348 29.087 8.17392 29.087C8.43479 27.1304 10.6522 25.3043 12.8696 25.1739C15.2174 25.0435 17.4348 26.8696 17.9565 29.087Z" fill="#93BCCC"/>
<path d="M13 22.8261C11.9565 22.8261 11.0435 21.913 11.0435 20.8695C11.0435 19.6956 11.8261 18.913 13 18.913C14.0435 18.913 14.9565 19.8261 14.9565 20.8695C14.9565 21.913 14.0435 22.8261 13 22.8261Z" fill="#93BCCC"/>
</svg>
