<svg width="44" height="58" viewBox="0 0 44 58" fill="none" xmlns="http://www.w3.org/2000/svg">
<path d="M15.6438 0.728027C16.0304 0.837181 16.2667 0.880842 16.5244 0.946334C18.2427 1.44844 19.961 1.97238 21.6793 2.43082C21.98 2.51815 22.3451 2.51815 22.6458 2.43082C24.3856 1.95055 26.1253 1.42661 27.8651 0.902673C28.7457 0.640704 28.939 0.706197 29.5189 1.47027C30.6143 2.9111 31.7097 4.35193 32.8266 5.77092C33.0414 6.03289 33.3421 6.2512 33.6428 6.38218C35.3396 7.0371 37.0364 7.64836 38.7332 8.28145C39.5709 8.58708 39.7212 8.82722 39.7427 9.72228C39.8071 11.5124 39.8286 13.3244 39.936 15.1145C39.9575 15.4856 40.0864 15.9004 40.3011 16.2278C41.2892 17.7778 42.2986 19.306 43.3296 20.8123C43.7162 21.3799 43.7162 21.8602 43.3296 22.4278C42.2986 23.9341 41.2892 25.4622 40.3011 27.0122C40.1078 27.3397 39.9575 27.7326 39.936 28.1256C39.8501 29.9157 39.8071 31.7276 39.7427 33.5178C39.7212 34.4347 39.5709 34.653 38.7332 34.9586C37.0149 35.5917 35.2966 36.2248 33.5784 36.8797C33.2991 36.9888 33.0414 37.1853 32.8481 37.4255C31.6883 38.8881 30.5499 40.3726 29.433 41.8789C29.0249 42.4247 28.5524 42.5775 27.908 42.381C26.1683 41.8571 24.4285 41.3332 22.6888 40.8529C22.3236 40.7656 21.9155 40.7656 21.5504 40.8529C19.8321 41.3332 18.1138 41.8353 16.3955 42.3374C15.5364 42.5775 15.3216 42.512 14.7847 41.8134C13.6678 40.3508 12.5724 38.8881 11.434 37.4691C11.2192 37.1853 10.8756 36.967 10.5534 36.836C8.85659 36.1811 7.15978 35.548 5.46298 34.9586C4.79715 34.7185 4.51793 34.3037 4.49645 33.5833C4.47497 31.7931 4.41053 29.9812 4.32462 28.1911C4.30314 27.7763 4.15279 27.3178 3.93801 26.9685C2.97147 25.4404 1.96198 23.9341 0.931012 22.4496C0.544399 21.882 0.544399 21.4017 0.931012 20.8341C1.98346 19.306 2.99295 17.756 4.00244 16.206C4.17427 15.9222 4.30314 15.5511 4.32462 15.2236C4.41053 13.4335 4.45349 11.6216 4.51793 9.83144C4.5394 8.82722 4.66828 8.63075 5.59185 8.30329C7.26718 7.69203 8.96398 7.08077 10.6393 6.42584C10.94 6.31669 11.2622 6.07655 11.477 5.81458C12.6368 4.35193 13.7537 2.84561 14.9135 1.36112C15.0854 1.07732 15.429 0.902673 15.6438 0.728027ZM22.1303 34.8494C29.2397 34.8713 35.1033 28.977 35.1463 21.7728C35.1893 14.4595 29.3901 8.4561 22.2592 8.41244C14.9994 8.36878 9.15729 14.2631 9.11433 21.62C9.09285 28.9115 14.9135 34.8276 22.1303 34.8494Z" fill="#0F2129"/>
<path d="M9.95198 38.8225C11.0474 40.2415 12.0998 41.6168 13.1523 43.014C14.2692 44.4767 15.0853 44.7605 16.8466 44.2802C17.9205 43.9964 18.9944 43.7126 20.1758 43.3851C19.8965 44.3675 19.6388 45.2626 19.4025 46.1576C18.436 49.6069 17.448 53.078 16.4815 56.5272C16.46 56.5927 16.4385 56.6364 16.417 56.7019C16.3096 57.2258 16.0519 57.6188 15.4934 57.6842C14.935 57.7497 14.6128 57.4223 14.3766 56.942C13.6463 55.6103 12.916 54.2787 12.1857 52.947C12.0784 52.7723 11.971 52.5759 11.8421 52.3357C11.1333 52.7287 10.4245 53.1216 9.71572 53.5146C8.85657 53.9949 7.99743 54.4751 7.13829 54.9554C6.7302 55.1737 6.34359 55.1737 5.97845 54.8899C5.61332 54.5843 5.5274 54.1913 5.65627 53.7547C7.0309 48.8646 8.40553 43.9527 9.80163 39.0626C9.82311 39.019 9.88754 38.9535 9.95198 38.8225Z" fill="#0F2129"/>
<path d="M32.4185 52.3576C31.5379 53.9512 30.7217 55.5012 29.8626 57.0075C29.6907 57.3131 29.3256 57.5969 28.9819 57.7061C28.4665 57.8589 28.0584 57.4659 27.8651 56.7674C26.8341 53.1216 25.8031 49.4541 24.7722 45.8083C24.5574 45.0443 24.3426 44.2802 24.1063 43.407C25.4165 43.7563 26.6193 44.0619 27.8006 44.4112C29.0893 44.7823 30.0988 44.3457 30.8935 43.3196C31.9675 41.9443 33.0199 40.5471 34.0724 39.1718C34.1368 39.0845 34.2227 38.9753 34.3731 38.8225C34.8241 40.438 35.2537 41.9661 35.7047 43.5161C36.6498 46.8562 37.5948 50.2181 38.5399 53.5582C38.6902 54.0822 38.7547 54.5625 38.2821 54.9554C37.8096 55.3484 37.3586 55.1737 36.886 54.9117C35.4255 54.0385 33.965 53.2308 32.4185 52.3576Z" fill="#0F2129"/>
<path d="M22.1303 32.819C15.966 32.7754 11.0904 27.7543 11.1333 21.4889C11.1763 15.3981 16.1808 10.4207 22.2377 10.4644C28.2517 10.5081 33.1917 15.5946 33.1273 21.7072C33.0844 27.8853 28.1443 32.8627 22.1303 32.819ZM20.5409 23.6501C19.6603 22.7551 18.8656 21.9692 18.0923 21.1614C17.448 20.5065 16.8896 20.441 16.417 20.9213C15.966 21.4016 16.0519 21.9692 16.6533 22.5804C17.6198 23.5628 18.5864 24.5452 19.5744 25.5276C20.2402 26.2043 20.7127 26.1825 21.3786 25.5058C22.3021 24.567 23.2257 23.6283 24.1708 22.6896C25.3736 21.4671 26.5549 20.2664 27.7362 19.0439C28.2946 18.4763 28.2732 17.7995 27.7147 17.4066C27.2852 17.1009 26.7697 17.1664 26.3186 17.6249C24.8151 19.1312 23.3331 20.6375 21.8511 22.1657C21.4 22.6678 20.9919 23.1699 20.5409 23.6501Z" fill="#0F2129"/>
</svg>
