<svg width="39" height="40" viewBox="0 0 39 40" fill="none" xmlns="http://www.w3.org/2000/svg">
<path d="M22.4948 29.2504C23.5142 29.7661 24.4063 30.2818 25.1709 31.0555C26.5727 32.6027 27.3373 34.4078 27.3373 36.4707C27.3373 37.1154 27.3373 37.7601 27.3373 38.2758C27.3373 38.7916 27.0825 39.0495 26.5727 39.0495C21.8576 39.0495 17.2699 39.0495 12.5547 39.0495C12.045 39.0495 11.7901 38.7916 11.7901 38.4048C11.7901 36.9865 11.6627 35.5682 12.045 34.2788C12.6822 31.958 14.2114 30.2818 16.2504 29.2504C16.3778 29.2504 16.3778 29.1214 16.5052 29.1214C16.5052 29.1214 16.5052 29.1214 16.5052 28.9925C14.7211 27.8321 13.9565 26.1559 14.084 24.0929C14.2114 22.6746 14.7211 21.3853 15.8681 20.3538C18.0345 18.4198 21.3478 18.4198 23.3868 20.4827C24.5337 21.7721 25.0435 23.3193 24.916 24.9955C24.916 26.9295 24.024 28.2189 22.4948 29.2504Z" fill="#93BCCC"/>
<path d="M23.1319 18.6776C20.7106 17.3883 18.4168 17.3883 15.9955 18.6776C15.9955 15.3253 15.9955 11.973 15.9955 8.62068C14.976 8.62068 13.9565 8.62068 12.937 8.62068C12.5547 8.62068 12.1724 8.62068 12.045 8.23387C11.9175 7.84707 12.045 7.58919 12.2998 7.33132C14.4663 5.13942 16.6327 2.94752 18.7991 0.755612C19.3088 0.239869 19.5637 0.239869 20.2009 0.755612C22.3673 2.94752 24.5337 5.13942 26.7001 7.33132C26.955 7.58919 27.2099 7.84707 26.955 8.23387C26.8276 8.62068 26.4453 8.74961 26.063 8.74961C25.0435 8.74961 24.024 8.74961 23.0045 8.74961C23.1319 11.973 23.1319 15.3253 23.1319 18.6776Z" fill="#93BCCC"/>
<path d="M28.7391 39.1784C28.8666 37.1154 28.994 35.0525 28.1019 33.1184C28.1019 32.9895 28.102 32.8606 28.2294 32.7316C28.6117 32.4738 28.994 32.087 29.5037 31.8291C29.6312 31.7002 29.7586 31.7002 29.8861 31.7002C27.4648 29.7661 27.5922 26.6717 29.2489 24.8666C31.1604 22.9325 33.964 22.9325 35.8756 24.8666C37.4048 26.5427 37.5322 29.7661 35.2384 31.7002C35.4933 31.8291 35.6207 31.958 35.7481 31.958C37.7871 33.2474 38.8066 35.0525 38.934 37.3733C38.934 37.7601 38.934 38.1469 38.934 38.4048C38.934 38.7916 38.6792 39.0495 38.2969 39.0495C34.9835 39.1784 31.925 39.1784 28.7391 39.1784Z" fill="#93BCCC"/>
<path d="M9.49625 31.5712C10.006 31.958 10.5157 32.2159 11.0255 32.6027C11.1529 32.7316 11.1529 32.8606 11.1529 32.9895C10.6432 34.2789 10.5157 35.5682 10.5157 36.8576C10.5157 37.5022 10.5157 38.2759 10.5157 39.0495C10.3883 39.0495 10.2609 39.0495 10.1334 39.0495C7.2024 39.0495 4.3988 39.0495 1.46776 39.0495C0.703147 39.0495 0.575709 38.7916 0.448273 38.018C0.448273 36.3418 0.703145 34.7946 1.72264 33.5052C2.35982 32.6027 3.25187 31.958 4.27136 31.4423C2.997 30.4108 2.35982 29.1214 2.48725 27.4453C2.48725 26.2849 2.997 25.2534 3.88905 24.3508C5.8006 22.6747 8.6042 22.8036 10.3883 24.6087C11.6627 26.6717 11.9175 29.7661 9.49625 31.5712Z" fill="#93BCCC"/>
<path d="M9.75112 17.7751C9.75112 19.4513 9.75112 21.1274 9.75112 22.9325C7.71214 21.901 5.8006 21.901 3.88905 22.9325C3.88905 21.2563 3.88905 19.5802 3.88905 17.7751C3.25187 17.7751 2.48725 17.7751 1.85007 17.7751C1.72264 17.7751 1.46776 17.7751 1.34033 17.7751C1.08545 17.6462 0.830582 17.5172 0.703146 17.3883C0.57571 17.1304 0.703146 16.7436 0.830583 16.6147C2.61469 14.8096 4.3988 12.8755 6.31034 11.0704C6.69265 10.6836 6.94752 10.6836 7.32983 11.0704C9.11394 12.8755 10.898 14.6806 12.6822 16.4857C12.937 16.7436 12.937 17.0015 12.8096 17.2593C12.6822 17.5172 12.4273 17.6461 12.045 17.6461C11.4078 17.6461 10.6432 17.7751 9.75112 17.7751Z" fill="#93BCCC"/>
<path d="M35.3658 17.7751C35.3658 19.4513 35.3658 21.1274 35.3658 22.9325C33.3268 21.901 31.4153 21.901 29.5037 22.9325C29.5037 21.2564 29.5037 19.5802 29.5037 17.904C29.3763 17.904 29.2489 17.904 29.1214 17.904C28.4843 17.904 27.8471 17.904 27.2099 17.904C26.8276 17.904 26.5727 17.904 26.4453 17.5172C26.3178 17.1304 26.4453 16.8725 26.7001 16.6147C28.4843 14.8096 30.1409 13.1334 31.925 11.3283C32.3073 10.9415 32.6897 10.9415 33.072 11.3283C34.8561 13.1334 36.6402 14.9385 38.2968 16.6147C38.5517 16.8725 38.6792 17.1304 38.5517 17.5172C38.4243 17.904 38.1694 17.904 37.7871 17.904C37.0225 17.6462 36.2579 17.7751 35.3658 17.7751Z" fill="#93BCCC"/>
</svg>
