<svg width="56" height="57" viewBox="0 0 56 57" fill="none" xmlns="http://www.w3.org/2000/svg">
<path d="M11.22 27.8765C14.0451 27.8765 16.81 27.7964 19.5549 27.8966C21.3782 27.9767 23.0211 28.7581 24.4436 29.8801C28.1302 32.7853 31.8369 35.7105 35.5034 38.6358C37.547 40.2787 37.9478 43.0637 36.5252 45.1674C35.1027 47.2712 32.3778 47.9324 30.0737 46.6701C26.5474 44.7467 23.0211 42.8032 19.4948 40.8798C19.2544 40.7595 18.9739 40.5592 18.7535 40.5993C18.4329 40.6794 18.0122 40.8798 17.892 41.1402C17.7717 41.4007 17.932 41.8214 18.0522 42.142C18.1123 42.2823 18.3528 42.3624 18.5131 42.4626C22.0594 44.4061 25.5857 46.3696 29.132 48.273C33.1392 50.4368 37.8877 48.3932 38.9696 44.0454C39.1699 43.2841 39.1699 42.4826 39.2501 41.6211C41.3338 41.0801 43.4576 40.5392 45.6014 39.9782C47.2444 39.5574 48.8673 39.1367 50.5102 38.7159C52.7342 38.1549 54.878 39.2569 55.6794 41.3406C56.4608 43.4043 55.6394 45.6082 53.6157 46.6901C51.2114 47.9724 48.7671 49.2347 46.3428 50.517C43.3975 52.0597 40.4723 53.6225 37.527 55.1452C33.6801 57.1288 29.7732 57.1488 25.8862 55.2254C21.1177 52.8612 16.3692 50.4769 11.6007 48.0926C11.3202 47.9524 11.1399 47.8322 11.1399 47.4515C11.1599 40.9799 11.1599 34.5084 11.1599 28.0368C11.2 28.0368 11.22 27.9567 11.22 27.8765Z" fill="#0F2129"/>
<path d="M0 38.0548C0 34.1278 0 30.2008 0 26.2737C0 25.272 0.280501 24.9915 1.28229 24.9915C2.9653 24.9915 4.66834 24.9915 6.35134 24.9915C8.15456 24.9915 9.33667 26.1736 9.33667 27.9968C9.33667 34.7088 9.33667 41.4008 9.33667 48.1127C9.33667 49.936 8.1746 51.1181 6.37138 51.1181C4.6483 51.1181 2.90519 51.1181 1.18211 51.1181C0.340608 51.1181 0.0200358 50.7975 0.0200358 49.956C0 45.989 0 42.0219 0 38.0548Z" fill="#0F2129"/>
<path d="M38.1481 33.6268C33.7202 28.5978 29.2923 23.5888 24.8043 18.4998C27.8698 18.4998 30.8351 18.4998 33.8405 18.4998C35.3231 23.5087 36.7857 28.5377 38.2684 33.5466C38.2283 33.5667 38.1882 33.5867 38.1481 33.6268Z" fill="#0F2129"/>
<path d="M40.1116 33.5667C41.5943 28.5377 43.0769 23.5087 44.5395 18.4797C47.5449 18.4797 50.5102 18.4797 53.5757 18.4797C49.0676 23.5688 44.6397 28.5978 40.2118 33.6268C40.1918 33.6067 40.1517 33.5867 40.1116 33.5667Z" fill="#0F2129"/>
<path d="M42.596 18.4797C41.474 22.2865 40.3721 26.0533 39.2701 29.82C39.23 29.82 39.1699 29.84 39.1298 29.84C38.0279 26.0733 36.9059 22.3066 35.7839 18.4797C38.068 18.4797 40.2919 18.4797 42.596 18.4797Z" fill="#0F2129"/>
<path d="M38.6691 10.105C37.2666 12.0685 35.9242 13.9519 34.5217 15.9154C33.1192 13.9519 31.7768 12.0685 30.3743 10.105C33.1592 10.105 35.8841 10.105 38.6691 10.105Z" fill="#0F2129"/>
<path d="M43.8583 15.9154C42.4358 13.9318 41.0934 12.0485 39.6909 10.085C42.4959 10.085 45.2007 10.085 48.0057 10.085C46.6232 12.0485 45.2608 13.9318 43.8583 15.9154Z" fill="#0F2129"/>
<path d="M24.7442 16.5565C26.0866 14.6731 27.3889 12.8499 28.7113 11.0066C30.0537 12.89 31.336 14.6932 32.6784 16.5565C30.0136 16.5565 27.429 16.5565 24.7442 16.5565Z" fill="#0F2129"/>
<path d="M45.7016 16.5565C47.044 14.6932 48.3263 12.89 49.6687 11.0066C50.991 12.8699 52.2934 14.6731 53.6358 16.5565C50.971 16.5565 48.3864 16.5565 45.7016 16.5565Z" fill="#0F2129"/>
<path d="M40.1316 4.03393C40.1316 4.75522 40.1316 5.47651 40.1316 6.19779C40.1316 6.83894 39.751 7.23966 39.21 7.23966C38.669 7.23966 38.2883 6.83894 38.2683 6.19779C38.2683 4.71515 38.2683 3.25254 38.2683 1.76989C38.2683 1.12874 38.649 0.728027 39.19 0.728027C39.7309 0.728027 40.1116 1.12874 40.1316 1.76989C40.1316 2.53125 40.1316 3.29261 40.1316 4.03393Z" fill="#0F2129"/>
<path d="M33.6601 7.40008C33.4598 7.62048 33.2594 8.00116 32.9789 8.0813C32.6984 8.16144 32.1775 8.0813 31.9971 7.86091C30.9753 6.59865 30.0136 5.29633 29.0719 3.97397C28.7714 3.55321 28.9116 3.09239 29.3123 2.79185C29.7331 2.47128 30.214 2.49132 30.5145 2.89203C31.5363 4.19436 32.498 5.51672 33.4798 6.83908C33.5599 6.93926 33.58 7.11958 33.6601 7.40008Z" fill="#0F2129"/>
<path d="M49.5885 3.41288C49.4082 3.77352 49.3281 4.01395 49.1878 4.19427C48.3263 5.35635 47.4447 6.51842 46.5832 7.6805C46.1624 8.22146 45.6415 8.32164 45.1807 7.961C44.7399 7.62039 44.6998 7.09946 45.1005 6.57853C45.9821 5.37638 46.8837 4.19427 47.7853 2.99212C48.0458 2.63148 48.4465 2.43112 48.8472 2.65152C49.1077 2.83184 49.3281 3.15241 49.5885 3.41288Z" fill="#0F2129"/>
<path d="M42.0351 16.5564C40.1116 16.5564 38.2884 16.5564 36.3649 16.5564C37.3266 15.214 38.2283 13.9518 39.19 12.5894C40.1517 13.9318 41.0533 15.194 42.0351 16.5564Z" fill="#0F2129"/>
</svg>
